<?xml version="1.0" standalone="no"?><!DOCTYPE svg PUBLIC "-//W3C//DTD SVG 1.1//EN" "http://www.w3.org/Graphics/SVG/1.1/DTD/svg11.dtd"><svg t="1641275523794" class="icon" viewBox="0 0 1024 1024" version="1.1" xmlns="http://www.w3.org/2000/svg" p-id="2224" xmlns:xlink="http://www.w3.org/1999/xlink" width="128" height="128"><defs><style type="text/css"></style></defs><path d="M911.810834 604.436156c-12.404856-82.233422-18.438758-163.313228-18.358839-244.483377 0.074707-78.331279 5.851478-156.424537 17.090555-235.409069C846.756573 91.206963 781.146353 67.208605 716.024334 51.08403 641.510068 32.63311 567.581297 24.517833 497.698872 24.517833c-68.01301 0-139.28881 8.004086-212.461823 25.904257-65.438221 16.008171-132.474826 39.917923-200.155997 73.067034 10.531966 77.745783 15.690232 155.51589 15.690231 233.09141 0 81.632291-5.7177 163.342763-16.890757 244.863862-1.17794 8.60348-1.749536 17.085343-1.749537 25.428217-0.001737 95.559087 72.650063 184.408432 159.041024 251.387705 87.316981 67.696808 187.923142 112.673966 242.825921 120.198536 4.941094 0.675839 9.578147 1.023314 13.84514 1.023313 4.312164 0 9.114268-0.389172 14.340291-1.148404 54.802012-7.971075 155.328254-53.794335 242.572265-121.484194 86.269344-66.932363 158.841225-154.859162 158.841225-247.388267 0-8.389783-0.582021-16.739606-1.786021-25.025146z m6.061701-244.483377c-0.078182 79.603037 5.893175 159.475367 18.160778 240.845314v0.095556c1.402061 9.656329 2.081375 19.182355 2.081375 28.567653 0 101.405353-76.948328 195.763914-168.42111 266.732198-90.496377 70.212526-195.953288 117.917363-254.063261 126.369691-6.537741 0.948607-12.493462 1.436809-17.787243 1.436809-5.038387 0-10.766511-0.444768-17.10098-1.311718-58.266338-7.984974-163.891774-54.82981-254.508029-125.084034-91.540539-70.971759-168.52709-166.226805-168.523615-270.731635 0.001737-9.56946 0.634142-19.140658 1.940647-28.684057 10.981946-80.127724 16.602353-160.748863 16.602354-241.608022 0-79.611724-5.453619-159.178276-16.602354-238.445999l-1.216162-8.655602 7.872045-3.938628c72.101053-36.052264 143.528004-61.829693 213.182833-78.868128 75.341257-18.430072 148.529906-26.672177 218.209059-26.672177 71.605901 0 147.497905 8.349823 224.166516 27.334117C791.389914 44.548026 861.527734 70.54089 929.636299 107.017073l7.614914 4.079356-1.245698 8.466228c-11.92534 81.043321-18.056536 160.766237-18.13298 240.390122z" p-id="2225"></path><path d="M856.855933 588.348065c-20.784214-137.846789-20.228254-271.198989-0.024323-408.482868-118.88508-63.669573-245.367701-88.913628-359.082354-88.913628-111.756632 0-234.090401 25.400419-358.85997 87.791284 19.092011 135.749777 18.529102 272.057252 0 407.245857-25.621066 186.931101 272.825172 347.056246 358.983323 347.059721 85.301626 0 385.328875-163.566885 358.983324-344.700366zM402.059866 488.320451c-5.375438-8.839763-11.061865-17.384172-17.055808-25.629753l-2.731154 0.842627-7.41859 207.063799-4.4998 4.339962h-34.462566l-4.187073-4.339962 7.085014-197.744521-1.577536-0.359636c-5.599559 12.740169-11.741179 25.555045-18.41791 38.430729a504.612335 504.612335 0 0 1-21.699811 37.772265l-5.802832 1.037213-29.352947-22.214074-0.96598-6.17463c5.795882-8.374146 11.89233-18.061748 18.282395-29.054118 7.314348-12.583805 14.496655-25.985914 21.545184-40.206327 7.046792-14.218675 13.860776-28.765714 20.440214-43.639379 5.957458-13.464654 11.306835-26.729511 16.042919-39.794569l-2.877093-4.08978h-39.365437l-4.188811-4.339963 1.376001-38.389032 4.499801-4.3417h43.286692l4.498063-4.339962 2.816285-78.59536 4.494588-4.143639 34.403495 1.565375 4.181861 4.538023-2.745052 76.635601 4.187074 4.339962h41.325196l4.187073 4.339962-1.181415 32.996222 3.188083 1.568849c22.836054-19.095486 42.654288-39.011013 59.452964-59.743106 16.703121-20.612214 31.0382-42.772429 43.000026-66.473696l6.277135-3.888245h30.049634l6.146832 3.950791c14.302069 30.834927 32.902403 59.267065 55.797528 85.287727 22.995892 26.138803 49.69413 50.606252 80.091239 73.407559l0.901697 6.086023-24.206842 32.732141-6.03564 0.856526a739.684527 739.684527 0 0 1-18.006152-14.281221c-5.818468-4.765619-11.412815-9.586834-16.774354-14.465382l-3.353133 1.398586-0.847839 23.682156-4.498063 4.339962H464.826004l-4.188811-4.339962 0.778344-21.718922-3.15681-1.534102c-6.608974 5.564811-13.796493 11.418027-21.557346 17.55096l-5.915761-0.863475-22.992418-32.617474 1.07891-6.007842c3.042143-2.121335 5.959195-4.246144 8.747682-6.367479 2.684244-2.04489 5.333741-4.088043 7.939803-6.132933l-0.934708-2.69293h-34.460828l-4.499801 4.339962-1.35689 37.90083 2.967436 1.32388 3.40178-3.283638 6.119034 0.128565c12.781866 13.594958 24.893106 28.680583 36.331981 45.244714l6.5916 2.277698 27.424461-8.660813 5.554387 2.798911c2.569577 7.576691 5.338953 16.26009 8.294227 26.046722 3.506022 11.603926 6.916489 23.617873 10.229663 36.040102 3.314911 12.420492 6.473458 24.597752 9.479116 36.528305 2.550466 10.128895 4.725659 19.255325 6.523843 27.382764l-3.118588 5.830629-35.676991 13.987604-4.741296-2.701617c-1.254385-7.486348-2.875355-15.947363-4.859437-25.376096-2.373254-11.2773-4.982791-22.881226-7.823398-34.813516-2.840608-11.930553-5.695114-23.536216-8.558309-34.813515-2.425375-9.539925-4.763882-18.200738-7.013781-25.985915l-4.423357-1.230061-23.51363 21.583407-5.436245-0.788768z m157.856133-206.744123c-20.101426 35.939334-46.419179 69.15099-78.944572 99.64018l1.160567 2.957012h153.12005l1.223112-3.021294c-31.712302-31.003453-55.926094-64.150826-72.630952-99.438645l-3.928205-0.137253z m-16.26009 290.047768c-1.502829-7.759116-3.325335-16.390394-5.462306-25.888621-2.538305-11.2773-5.231235-22.799569-8.077056-34.566809-2.847557-11.767239-5.709013-23.127933-8.586106-34.078606-2.366304-9.011763-4.557134-16.862959-6.563801-23.548377l2.896203-5.38065 33.293313-9.805743 5.493579 2.910102c2.001456 6.384852 4.185336 13.914634 6.542953 22.585872 2.887517 10.622309 5.839317 21.738033 8.855399 33.343697 3.01782 11.603926 5.794145 23.044539 8.33245 34.321838 2.138708 9.498228 3.959477 18.127768 5.462306 25.886884l-3.304487 5.655155-33.955252 11.444088-4.927195-2.87883z m131.828523-112.700026c-3.080365 9.713662-6.758388 20.431527-11.034068 32.141433-4.892447 13.402109-10.043764 27.130844-15.450473 41.186206-5.408448 14.057099-10.891602 27.949148-16.449465 41.677883-4.913296 12.1373-9.475642 23.383327-13.687038 33.731131l2.705092 4.02376h67.312848l4.188811 4.339962-1.376001 38.390771-4.499801 4.341699H407.079141l-4.18881-4.339962 1.376001-38.39077 4.4998-4.3417h155.573224l6.10166-3.971638c5.106144-11.612613 10.243562-24.020944 15.407039-37.214568 5.75766-14.708615 11.517057-29.502361 17.27993-44.374289 5.762872-14.873665 11.193906-29.584018 16.2931-44.129319 4.553659-12.997301 8.820652-25.275328 12.800977-36.83582l5.550913-2.790224 34.870849 11.094876 2.840608 5.460569z" p-id="2226"></path></svg>