<?xml version="1.0" standalone="no"?><!DOCTYPE svg PUBLIC "-//W3C//DTD SVG 1.1//EN" "http://www.w3.org/Graphics/SVG/1.1/DTD/svg11.dtd"><svg t="1640850080987" class="icon" viewBox="0 0 1024 1024" version="1.1" xmlns="http://www.w3.org/2000/svg" p-id="1836" xmlns:xlink="http://www.w3.org/1999/xlink" width="128" height="128"><defs><style type="text/css"></style></defs><path d="M509.83 575.88c-20.41 0-40.78-4.31-56.9-12.9L163.12 408.46c-21.48-11.45-33.71-29.6-33.56-49.79 0.15-20.35 12.86-38.53 34.87-49.86l295.9-152.3c32.48-16.72 81-16.5 112.94 0.51l289.8 154.52c21.48 11.45 33.71 29.6 33.57 49.79-0.15 20.35-12.86 38.53-34.88 49.86l-295.9 152.3c-16.06 8.27-36.06 12.39-56.03 12.39z m-305.41-216.8l278.15 148.31c13.79 7.35 40.26 7.39 54.46 0.08l284.74-146.55-278.14-148.31c-13.8-7.35-40.26-7.39-54.47-0.08z" fill="#999999" p-id="1837"></path><path d="M218.52609 531.213194m28.18586 15.151149l281.083485 151.094833q28.18586 15.151149 13.034711 43.337009l0 0q-15.151149 28.18586-43.337009 13.034711l-281.083485-151.094833q-28.18586-15.151149-13.034711-43.337009l0 0q15.151149-28.18586 43.337009-13.034711Z" fill="#999999" p-id="1838"></path><path d="M836.55986 587.615533m-28.18586 15.151149l-281.083485 151.094832q-28.18586 15.151149-43.337009-13.03471l0 0q-15.151149-28.18586 13.034711-43.337009l281.083486-151.094833q28.18586-15.151149 43.337008 13.034711l0 0q15.151149 28.18586-13.034711 43.337009Z" fill="#999999" p-id="1839"></path><path d="M218.004717 658.366373m28.185859 15.151149l281.083486 151.094833q28.18586 15.151149 13.034711 43.337008l0 0q-15.151149 28.18586-43.337009 13.034711l-281.083485-151.094833q-28.18586-15.151149-13.034711-43.337008l0 0q15.151149-28.18586 43.337008-13.034711Z" fill="#999999" p-id="1840"></path><path d="M836.624082 714.75847m-28.18586 15.151149l-281.083485 151.094833q-28.18586 15.151149-43.337009-13.034711l0 0q-15.151149-28.18586 13.034711-43.337009l281.083486-151.094833q28.18586-15.151149 43.337008 13.034711l0 0q15.151149 28.18586-13.034711 43.337009Z" fill="#999999" p-id="1841"></path></svg>